<?xml version="1.0" encoding="UTF-8" standalone="no"?>
<!DOCTYPE svg PUBLIC "-//W3C//DTD SVG 1.1//EN" "http://www.w3.org/Graphics/SVG/1.1/DTD/svg11.dtd">
<svg width="100%" height="100%" viewBox="0 0 5000 5000" version="1.1" xmlns="http://www.w3.org/2000/svg" xmlns:xlink="http://www.w3.org/1999/xlink" xml:space="preserve" xmlns:serif="http://www.serif.com/" style="fill-rule:evenodd;clip-rule:evenodd;stroke-linejoin:round;stroke-miterlimit:2;">
    <g transform="matrix(2.59998,0,0,2.60004,-3994.75,-4000.1)">
        <path d="M2010.66,2012.71C1970.72,2066.12 1939.08,2120.89 1913.27,2182.38C1816.01,2449.16 1887.35,2753.02 2134.68,2908.57C2192.28,2942.54 2266.19,2974.96 2334.9,2972.45C2373.84,2969.4 2291.4,2941.84 2286.93,2939.93C2278.11,2936.06 2269.44,2932.01 2260.93,2927.79C2271.57,2869.91 2297.49,2713.56 2319.75,2577.85L2676.24,2577.85C2703.76,2745.62 2736.87,2944.93 2739.78,2950.75C2739.91,2951.02 2740.12,2951.23 2740.38,2951.4C2668.72,2999.71 2586.09,3029.84 2497.99,3039.21C2431.58,3046.28 2362.08,3041.59 2291.82,3024C2069.34,2956.87 1920.9,2785.42 1869.29,2560.56C1834.8,2358.25 1885.39,2174.45 2010.66,2012.71ZM2533.62,2434.61L2652.83,2434.61C2656.31,2455.96 2660.28,2480.33 2664.57,2506.59L2533.62,2506.59L2533.62,2434.61ZM2343.16,2434.61L2462.37,2434.61L2462.37,2506.59L2331.41,2506.59C2335.7,2480.33 2339.68,2455.96 2343.16,2434.61ZM2436.56,1871.48C2457.23,1867.92 2477.7,1865.27 2497.99,1863.48C2676.14,1847.79 2839.18,1899.8 2984.52,2012.04C2839.31,1903.79 2668.91,1854.31 2497.99,1877.79C2444.92,1885.07 2391.8,1899.38 2339.36,1921.16C2281.73,1947.8 2230.83,1980.46 2183.35,2022.62C2103.38,2098.66 2021,2220.88 2025.46,2337.44C2028.56,2376.3 2056.07,2293.75 2057.96,2289.3C2141.1,2099.39 2306.62,1981.21 2497.99,1960.82C2564.11,1953.77 2633.32,1958.38 2703.29,1975.77C2925.88,2042.55 3074.58,2213.77 3126.52,2438.57C3161.29,2640.82 3110.95,2824.69 2985.9,2986.59C3113.03,2816.09 3159,2614.04 3101.35,2407.92C3041.7,2223.89 2879.28,2038.61 2673.03,2027.53C2670.8,2027.47 2645.61,2026.16 2649.42,2033C2661.42,2045.53 2693.47,2053.39 2709.25,2060.14C2964.75,2172.33 3090.17,2433.61 3022.03,2706.06C2954.92,2928.6 2783.46,3077.08 2558.55,3128.7C2538.17,3132.18 2517.99,3134.77 2497.99,3136.52C2319.42,3152.22 2156.1,3099.96 2010.65,2987.27C2155.97,3095.96 2326.68,3145.71 2497.99,3122.19C2550.73,3114.95 2603.52,3100.77 2655.65,3079.23C2713.33,3052.69 2764.29,3020.12 2811.85,2978.05C2891.96,2902.17 2974.56,2780.11 2970.35,2663.55C2967.33,2624.69 2939.66,2707.18 2937.75,2711.63C2910.63,2773.24 2874.83,2827.27 2832.31,2872.84L2755.83,2577.85L2852.29,2577.85L2852.29,2506.59L2737.36,2506.59L2718.69,2434.61L2972.79,2434.61C2932.62,2415.38 2903.41,2385.59 2893.19,2350.88C2885.84,2351.49 2878.36,2351.82 2870.77,2351.82C2777.38,2351.82 2699.71,2304.17 2683.82,2241.43L2312.16,2241.43C2296.28,2304.17 2218.61,2351.82 2125.22,2351.82C2117.63,2351.82 2110.15,2351.49 2102.79,2350.88C2092.58,2385.59 2063.37,2415.38 2023.2,2434.61L2277.29,2434.61L2258.63,2506.59L2143.7,2506.59L2143.7,2577.85L2240.15,2577.85L2164.93,2868C1993.49,2736.04 1917.92,2519.2 1973.79,2294.6C2040.61,2072.06 2211.8,1923.4 2436.56,1871.48ZM1836.54,2818.32C1961.97,3103.28 2210.65,3280.47 2497.99,3311.05C2597.88,3321.68 2702.42,3314.63 2808.1,3288.18C3142.73,3187.2 3366.01,2929.32 3443.64,2591.09C3495.52,2286.8 3419.42,2010.33 3231.01,1767.06C3291.08,1847.39 3338.68,1929.77 3377.49,2022.26C3523.79,2423.53 3416.48,2880.58 3044.47,3114.55C2957.83,3165.64 2846.66,3214.4 2743.3,3210.62C2684.73,3206.04 2808.74,3164.6 2815.46,3161.72C3199.56,2993.21 3388.37,2600.71 3286.46,2191.05C3185.96,1856.32 2928.47,1632.73 2590.4,1554.62C2559.3,1549.27 2528.5,1545.29 2497.99,1542.6C2230.04,1518.99 1984.79,1597.23 1766.19,1766.04C1984.61,1603.22 2240.9,1528.81 2497.99,1564.11C2577.82,1575.07 2657.72,1596.59 2736.6,1629.35C2823.29,1669.42 2899.84,1718.55 2971.26,1781.97C3091.55,1896.33 3215.45,2080.17 3208.74,2255.5C3204.08,2313.95 3162.71,2189.78 3159.86,2183.09C3034.81,1897.43 2785.84,1719.66 2497.99,1689C2398.53,1678.41 2294.44,1685.34 2189.2,1711.5C1854.39,1811.94 1630.73,2069.48 1552.62,2407.6C1500.31,2711.82 1576.03,2988.38 1764.13,3231.89C1572.9,2975.45 1503.75,2671.53 1590.46,2361.51C1680.19,2084.7 1924.49,1806.02 2234.72,1789.34C2238.06,1789.25 2275.96,1787.29 2270.22,1797.58C2252.18,1816.41 2203.97,1828.24 2180.24,1838.4C1795.93,2007.15 1607.29,2400.14 1709.78,2809.95C1810.71,3144.67 2068.61,3368 2406.91,3445.65C2437.56,3450.87 2467.91,3454.77 2497.99,3457.42C2766.59,3481.03 3012.24,3402.42 3231.02,3232.93C3012.43,3396.41 2755.66,3471.24 2497.99,3435.86C2418.67,3424.97 2339.26,3403.64 2260.85,3371.24C2174.09,3331.33 2097.45,3282.33 2025.92,3219.06C1905.42,3104.92 1781.17,2921.33 1787.51,2746C1792.05,2687.55 1833.67,2811.63 1836.54,2818.32Z" style="fill:rgb(244,8,8);"/>
    </g>
</svg>
