<?xml version="1.0" standalone="no"?>
<!DOCTYPE svg PUBLIC "-//W3C//DTD SVG 20010904//EN"
 "http://www.w3.org/TR/2001/REC-SVG-20010904/DTD/svg10.dtd">
<svg version="1.0" xmlns="http://www.w3.org/2000/svg"
 width="313.000000pt" height="313.000000pt" viewBox="0 0 313.000000 313.000000"
 preserveAspectRatio="xMidYMid meet">
<metadata>
Created by potrace 1.11, written by Peter Selinger 2001-2013
</metadata>
<g transform="translate(0.000000,313.000000) scale(0.100000,-0.100000)"
fill="#000000" stroke="none">
<path d="M1495 3068 c-21 -24 -77 -86 -125 -138 -47 -52 -102 -112 -121 -133
l-34 -39 -103 43 c-56 23 -104 40 -106 38 -1 -2 -18 -47 -37 -99 l-35 -95
-239 -1 c-132 -1 -244 -2 -250 -3 -6 -1 -9 -88 -8 -245 l3 -244 -94 -38 -94
-39 34 -80 c18 -44 33 -86 34 -93 0 -7 -46 -61 -103 -120 -156 -161 -207 -216
-207 -223 0 -3 17 -22 38 -41 59 -56 278 -282 285 -295 4 -6 -9 -52 -29 -103
-19 -51 -33 -94 -31 -96 2 -2 39 -19 83 -38 l79 -35 2 -213 c1 -117 2 -222 2
-233 1 -19 8 -20 236 -19 l234 1 32 -76 c17 -42 36 -88 41 -103 6 -16 13 -28
16 -28 4 0 54 19 111 42 l103 42 52 -55 c28 -30 94 -101 146 -158 123 -134
121 -132 130 -129 5 2 83 76 174 165 184 179 165 170 253 125 21 -11 54 -27
74 -35 l37 -15 43 101 c23 56 44 104 45 105 1 2 108 4 238 3 142 0 237 3 241
9 3 5 6 111 7 235 0 153 4 227 12 233 6 5 29 16 51 25 22 8 61 24 87 36 l47
20 -42 101 -42 102 41 36 c153 136 314 286 314 292 0 4 -77 82 -171 174 l-171
167 22 52 c12 29 33 73 46 99 l24 47 -100 38 -100 38 0 235 0 235 -227 0
c-126 -1 -233 0 -239 2 -7 3 -29 46 -49 96 -21 51 -39 94 -41 96 -2 2 -49 -15
-106 -38 -57 -23 -107 -41 -111 -41 -4 0 -87 79 -183 175 -96 96 -176 175
-178 175 -1 0 -20 -19 -41 -42z m226 -202 l129 -129 -67 -29 -68 -28 -70 70
-70 70 -75 -75 -75 -75 -79 33 c-43 18 -78 36 -78 40 1 7 64 80 192 220 25 27
52 57 60 68 18 21 3 34 201 -165z m414 -199 c6 -23 4 -23 -63 -22 -65 1 -71 3
-107 38 l-37 36 58 26 c33 14 68 29 79 34 17 8 23 2 42 -40 13 -27 25 -59 28
-72z m-1024 87 c35 -14 66 -28 68 -30 2 -2 -12 -20 -32 -41 -34 -34 -41 -37
-97 -38 -40 -1 -60 3 -60 11 0 10 12 50 35 112 6 17 12 16 86 -14z m513 -48
l46 -44 -49 -21 c-60 -25 -60 -25 -112 -5 l-41 17 48 48 c27 27 51 49 55 49 4
0 28 -20 53 -44z m-308 -38 l75 -31 -44 -44 -44 -44 -69 27 c-38 15 -73 31
-79 36 -9 8 61 88 77 88 5 0 42 -14 84 -32z m612 -9 c24 -23 40 -45 35 -49 -4
-4 -34 -18 -66 -30 l-57 -24 -46 45 -45 44 58 27 c32 15 63 27 68 27 6 1 29
-18 53 -40z m-182 -74 c26 -25 45 -47 43 -49 -2 -2 -30 -16 -61 -29 l-58 -26
-45 47 -45 47 58 27 c31 14 58 27 59 27 1 1 23 -19 49 -44z m-223 -9 c-3 -10
-46 -59 -64 -74 -14 -10 -25 -9 -64 8 l-48 21 43 44 43 44 46 -19 c25 -9 45
-21 44 -24z m-671 24 l66 0 -27 -77 -27 -78 -105 -5 -104 -5 3 -96 3 -96 -85
-35 c-55 -23 -86 -31 -89 -24 -2 6 -5 102 -6 213 l-2 202 28 3 c15 2 84 2 153
1 69 -1 155 -3 192 -3z m1773 -198 c0 -107 -2 -195 -6 -197 -6 -4 -134 43
-155 57 -8 6 -10 38 -7 103 l5 94 -97 3 -96 3 -29 67 -28 67 117 3 c64 2 156
1 206 -2 l90 -5 0 -193z m-1505 190 c0 -5 -13 -40 -28 -78 l-29 -69 -77 -3
c-61 -2 -77 0 -74 10 3 7 16 43 29 81 l24 67 77 0 c43 0 78 -4 78 -8z m1073
-60 c15 -37 27 -69 27 -72 0 -3 -36 -5 -80 -5 l-79 0 -26 68 c-14 37 -25 70
-25 73 0 2 35 4 78 4 l77 0 28 -68z m-934 -18 c3 -2 -11 -20 -29 -39 -28 -29
-41 -35 -77 -35 -24 0 -43 2 -43 4 0 2 11 29 25 60 l25 55 47 -20 c26 -11 50
-22 52 -25z m734 -3 c9 -27 17 -51 17 -54 0 -3 -15 -5 -34 -5 -26 0 -42 8 -67
34 -18 18 -31 36 -28 38 7 7 73 34 84 35 6 1 18 -21 28 -48z m-407 -4 c36 -39
37 -46 8 -57 -28 -11 -94 5 -94 22 0 11 47 58 57 58 4 0 17 -10 29 -23z m290
-52 c42 -40 52 -44 102 -47 53 -3 56 -4 67 -38 30 -87 33 -80 -29 -80 -47 0
-56 3 -61 21 -4 11 -16 40 -26 64 l-19 44 -68 -29 -67 -29 -37 42 -37 42 57
27 c31 15 60 27 64 28 4 0 29 -20 54 -45z m-510 19 c22 -9 41 -18 43 -20 2 -2
-14 -22 -37 -44 l-41 -41 -46 22 c-25 12 -45 24 -45 27 0 11 64 72 76 72 6 0
29 -7 50 -16z m144 -60 c22 -9 40 -18 40 -21 0 -2 -18 -23 -41 -45 -39 -38
-41 -39 -72 -27 -60 23 -61 29 -20 71 20 21 41 38 45 38 4 0 26 -7 48 -16z
m179 -87 l-41 -19 -39 38 c-22 21 -39 41 -39 44 0 3 19 13 43 22 l42 16 38
-41 38 -42 -42 -18z m581 21 c24 -58 30 -65 82 -90 l56 -27 -4 -63 c-1 -35 -3
-68 -3 -75 -1 -8 -20 -4 -58 12 l-58 23 -5 79 -5 78 -79 5 -78 5 -19 50 c-11
28 -17 55 -15 60 2 6 37 9 81 8 l78 -1 27 -64z m142 57 c4 -6 5 -20 3 -31 -2
-10 -4 -36 -4 -56 l-1 -36 -39 15 c-32 13 -43 24 -59 63 -11 27 -19 50 -16 52
8 9 110 2 116 -7z m-1577 -20 c-2 -41 -20 -77 -43 -87 -15 -6 -38 -15 -52 -21
-14 -6 -27 -12 -30 -13 -7 -3 -12 115 -6 125 7 11 131 7 131 -4z m202 0 c-2
-5 -10 -27 -18 -47 l-13 -38 -73 0 c-40 0 -73 2 -73 4 0 9 24 72 31 81 10 14
151 13 146 0z m138 3 c3 -3 -2 -24 -11 -47 -16 -40 -17 -41 -65 -41 l-49 0 17
43 c9 23 20 45 25 48 11 7 75 5 83 -3z m90 -35 c33 -16 34 -18 18 -35 -17 -19
-83 -26 -83 -8 0 10 22 60 26 60 2 0 19 -8 39 -17z m638 -28 l17 -35 -39 0
c-25 0 -44 7 -56 20 -17 18 -16 20 16 34 46 20 43 20 62 -19z m-318 -15 c17
-19 17 -20 -10 -30 -15 -6 -36 -8 -47 -4 -19 6 -19 7 3 30 27 29 31 29 54 4z
m-187 -18 l33 -18 -23 -27 c-28 -32 -34 -32 -88 -11 l-41 17 27 28 c32 33 46
35 92 11z m395 -13 c15 -17 27 -33 27 -35 0 -2 -17 -11 -37 -19 -36 -15 -37
-15 -70 17 l-34 33 38 17 c50 22 45 23 76 -13z m-953 -83 l0 -73 -52 -23 c-29
-12 -58 -24 -64 -27 -8 -3 -12 19 -13 70 l-1 75 62 25 c35 15 64 26 66 27 1 0
2 -33 2 -74z m140 49 c-2 -29 -38 -79 -67 -90 l-32 -13 1 57 1 57 49 -1 c26 0
48 -4 48 -10z m141 -6 c-22 -79 -23 -79 -78 -79 l-53 0 17 38 c26 56 28 58 75
57 32 -1 42 -5 39 -16z m139 6 c0 -5 -9 -29 -19 -52 -18 -39 -22 -42 -60 -41
-23 0 -41 4 -41 8 0 4 9 27 20 52 18 41 21 44 60 43 22 0 40 -4 40 -10z m408
-63 c-31 -13 -34 -13 -61 19 l-29 32 28 12 c27 11 32 10 62 -19 l33 -31 -33
-13z m-157 52 l30 -15 -25 -25 c-23 -24 -27 -25 -60 -13 l-35 13 22 27 c26 33
29 34 68 13z m415 7 c10 -1 44 -69 44 -86 0 -3 -17 -5 -38 -5 -37 0 -39 2 -54
48 l-15 49 26 -3 c14 -1 31 -2 37 -3z m171 -22 c7 -15 14 -37 15 -50 3 -22 -1
-24 -41 -24 -42 -1 -45 1 -62 40 -26 57 -25 61 28 60 41 0 50 -4 60 -26z m134
22 c4 -1 7 -21 7 -45 l1 -45 -32 11 c-40 13 -54 26 -62 59 -6 24 -5 25 37 23
24 -1 46 -3 49 -3z m384 -92 c6 -4 10 -41 10 -81 l-2 -73 49 -51 49 -50 -37
-83 -37 -82 -55 54 -54 54 31 73 c17 39 31 76 31 80 0 4 -36 22 -79 40 -77 32
-79 34 -76 64 2 17 4 52 4 78 l1 47 78 -31 c42 -17 82 -35 87 -39z m-1945 -35
l0 -61 -75 -32 c-41 -17 -79 -31 -85 -31 -15 0 -13 -5 25 -87 19 -41 35 -78
35 -81 0 -4 -26 -32 -57 -64 l-57 -58 -38 91 c-21 50 -38 93 -38 95 0 2 22 27
50 56 30 32 50 63 51 78 0 14 2 42 3 63 1 37 2 38 86 76 56 24 87 34 92 27 4
-6 8 -39 8 -72z m649 74 c19 -12 19 -12 -1 -29 -28 -25 -50 -15 -36 17 13 28
12 28 37 12z m524 -18 c4 -16 0 -20 -17 -20 -12 0 -27 5 -34 12 -10 10 -7 15
10 24 27 14 34 12 41 -16z m-259 -21 c-7 -11 -44 -12 -44 -1 0 4 5 13 12 20
13 13 42 -4 32 -19z m-146 -8 c10 -6 8 -12 -7 -25 -18 -16 -24 -17 -50 -5 -28
13 -29 15 -14 31 16 18 37 17 71 -1z m332 -22 c0 -5 -15 -12 -32 -17 -28 -8
-36 -6 -50 12 -16 20 -16 21 15 32 26 9 35 9 50 -4 9 -8 17 -19 17 -23z m432
-3 c33 -14 35 -17 36 -70 1 -62 -6 -67 -54 -37 -25 15 -30 25 -29 47 2 16 3
39 4 52 1 26 -1 26 43 8z m540 -14 l66 -28 -30 -65 c-17 -35 -33 -66 -35 -68
-2 -3 -19 11 -38 29 -33 32 -35 38 -35 97 0 35 1 63 3 63 1 0 32 -13 69 -28z
m-1780 -23 c4 -39 2 -43 -30 -56 -42 -17 -52 -11 -50 34 1 29 6 38 32 49 43
19 43 19 48 -27z m102 16 c-4 -11 -7 -20 -8 -20 0 -1 -13 -6 -27 -12 -24 -10
-25 -10 -23 21 1 17 2 31 3 32 0 1 14 1 31 0 25 -1 29 -4 24 -21z m131 6 c3
-5 0 -21 -6 -34 -9 -20 -19 -25 -50 -25 -42 -1 -49 11 -29 49 11 20 74 28 85
10z m104 -30 c-8 -22 -17 -28 -40 -29 -26 -1 -29 2 -23 21 10 35 22 45 48 40
22 -5 23 -8 15 -32z m229 31 c20 -13 -19 -43 -46 -35 -22 5 -22 7 -6 24 19 21
32 23 52 11z m119 -12 c8 -11 9 -21 3 -25 -12 -8 -50 17 -50 32 0 20 34 15 47
-7z m215 11 c11 -2 28 -61 17 -62 -5 -1 -15 -2 -21 -3 -7 -1 -19 12 -25 28
-17 38 -16 45 5 41 9 -2 20 -4 24 -4z m125 0 c12 -1 36 -60 25 -62 -56 -11
-91 8 -92 51 0 15 14 17 67 11z m-1547 -44 c0 -37 -6 -48 -40 -82 -22 -21 -41
-37 -43 -34 -6 8 -37 84 -39 98 -3 12 87 59 115 61 4 0 7 -19 7 -43z m1674 16
c-4 -16 -8 -29 -10 -31 -6 -8 -44 20 -54 38 -10 18 -7 20 30 20 39 0 40 -1 34
-27z m-748 -21 c-18 -18 -29 -12 -20 11 3 9 12 13 21 10 13 -5 13 -8 -1 -21z
m979 3 l56 -24 -4 -53 c-2 -29 -8 -53 -13 -53 -5 0 -30 9 -56 20 l-48 20 0 58
c0 31 2 57 5 57 2 0 29 -11 60 -25z m-1505 -29 l0 -43 -56 -22 c-31 -11 -58
-21 -60 -21 -2 0 -4 19 -4 43 0 42 1 44 48 64 68 30 72 29 72 -21z m948 21 c3
-16 -13 -18 -37 -3 -11 7 -11 10 0 17 18 11 33 6 37 -14z m-217 -10 c-13 -13
-26 -3 -16 12 3 6 11 8 17 5 6 -4 6 -10 -1 -17z m-127 -3 c9 -3 16 -10 16 -16
0 -14 -43 -5 -48 10 -4 13 7 15 32 6z m263 -20 c-3 -4 -14 -3 -24 0 -15 6 -15
8 -3 16 16 10 39 -4 27 -16z m-635 -6 c7 -51 -3 -75 -36 -85 l-32 -10 1 44 c0
37 5 47 25 59 34 18 38 17 42 -8z m-397 -42 c0 -36 -6 -51 -29 -75 -17 -17
-33 -31 -36 -31 -10 0 -52 92 -45 98 3 4 30 16 58 28 29 12 52 23 52 23 0 1 0
-19 0 -43z m1409 34 c22 -8 26 -16 26 -50 0 -42 -1 -43 -37 -34 -19 5 -23 13
-23 50 0 49 -1 48 34 34z m413 -6 c48 -19 49 -22 26 -82 l-16 -43 -34 32 c-26
26 -33 41 -33 71 0 44 0 44 57 22z m-1344 -14 c-3 -11 -9 -20 -14 -20 -5 0
-12 0 -16 0 -9 0 -12 20 -6 33 2 4 12 7 23 7 13 0 17 -5 13 -20z m107 0 c-12
-23 -60 -28 -60 -7 0 20 10 27 42 27 26 0 28 -2 18 -20z m88 3 c-2 -10 -13
-19 -25 -21 -17 -3 -20 1 -16 17 7 26 46 29 41 4z m177 7 c-3 -5 -10 -10 -16
-10 -5 0 -9 5 -9 10 0 6 7 10 16 10 8 0 12 -4 9 -10z m110 0 c3 -5 -1 -10 -9
-10 -9 0 -19 0 -23 -1 -4 0 -9 4 -11 10 -5 14 35 14 43 1z m-673 -81 c-3 -13
-52 -39 -74 -39 -2 0 -5 18 -6 40 -2 36 1 41 36 59 l37 19 5 -31 c3 -18 4 -39
2 -48z m862 65 c5 -12 0 -15 -21 -12 -14 2 -28 9 -31 16 -6 18 45 15 52 -4z
m94 -1 c6 -19 -45 -16 -52 3 -5 12 0 15 21 12 14 -2 28 -9 31 -15z m92 -3 c0
-21 -8 -24 -34 -14 -25 10 -19 34 9 34 18 0 25 -5 25 -20z m-605 0 c3 -5 1
-10 -4 -10 -6 0 -11 5 -11 10 0 6 2 10 4 10 3 0 8 -4 11 -10z m795 -18 c30
-15 35 -22 38 -59 l3 -42 -46 15 c-44 16 -45 17 -45 60 0 49 1 50 50 26z
m-730 -10 c0 -13 -12 -22 -22 -16 -10 6 -1 24 13 24 5 0 9 -4 9 -8z m205 -2
c-3 -5 -11 -10 -16 -10 -6 0 -7 5 -4 10 3 6 11 10 16 10 6 0 7 -4 4 -10z
m-835 -48 c0 -25 -7 -43 -20 -55 -20 -17 -21 -16 -40 25 l-19 42 27 12 c45 20
52 17 52 -24z m325 0 c0 -20 -13 -32 -37 -32 -10 0 -15 6 -13 18 2 9 4 20 4
24 1 8 34 16 41 10 3 -2 5 -11 5 -20z m65 19 c0 -6 -4 -13 -10 -16 -5 -3 -10
1 -10 9 0 9 5 16 10 16 6 0 10 -4 10 -9z m90 -2 c0 -7 -25 -19 -41 -19 -4 0
-6 6 -3 13 5 13 44 18 44 6z m280 1 c0 -5 -2 -10 -4 -10 -3 0 -8 5 -11 10 -3
6 -1 10 4 10 6 0 11 -4 11 -10z m158 -8 c2 -7 -3 -12 -12 -12 -9 0 -16 7 -16
16 0 17 22 14 28 -4z m89 1 c3 -7 -4 -11 -16 -10 -12 1 -21 7 -21 15 0 16 32
12 37 -5z m500 -16 c9 -6 8 -17 -4 -43 l-17 -34 -23 22 c-15 14 -23 33 -23 55
0 32 1 32 28 21 15 -7 32 -16 39 -21z m-350 11 c6 -7 10 -20 10 -29 0 -25 -52
-4 -54 21 -2 23 28 28 44 8z m-1237 -108 c0 -5 -18 -27 -39 -51 l-40 -42 -27
57 -28 56 44 45 45 45 22 -51 c13 -28 23 -55 23 -59z m310 72 c0 -21 -7 -32
-25 -40 -35 -16 -35 -16 -35 17 0 28 8 35 58 50 1 1 2 -12 2 -27z m1388 -7
l31 -34 -18 -38 c-9 -21 -22 -48 -27 -61 -9 -23 -9 -22 -47 16 l-38 38 26 57
c15 31 30 57 35 57 4 0 22 -16 38 -35z m-356 -8 c3 -6 4 -16 1 -23 -8 -22 -53
5 -53 33 0 21 2 23 23 12 12 -7 25 -17 29 -22z m-192 -18 c0 -12 -5 -16 -15
-13 -8 4 -15 15 -15 25 0 12 5 16 15 13 8 -4 15 -15 15 -25z m1032 -150 l120
-116 -49 -45 c-114 -108 -252 -232 -263 -236 -6 -2 -60 124 -60 143 0 5 28 38
62 72 l62 63 -66 68 -67 67 36 83 37 82 34 -32 c19 -18 88 -85 154 -149z
m-2557 77 l37 -89 -66 -66 -66 -66 62 -62 62 -63 -19 -55 c-33 -100 -25 -103
-184 60 l-143 146 58 62 c103 110 218 227 220 224 1 -1 19 -42 39 -91z m572
61 c-19 -29 -33 -32 -40 -7 -4 16 0 23 16 29 31 12 41 3 24 -22z m283 19 c0
-16 -18 -31 -27 -22 -8 8 5 36 17 36 5 0 10 -6 10 -14z m550 4 c0 -5 -6 -10
-14 -10 -8 0 -18 5 -21 10 -3 6 3 10 14 10 12 0 21 -4 21 -10z m410 -38 c0
-10 -4 -23 -8 -30 -10 -15 -40 14 -47 46 -3 19 -1 20 26 10 16 -6 29 -17 29
-26z m-1310 -48 c0 -6 -10 -20 -23 -32 l-23 -22 -13 36 c-12 33 -11 38 11 61
l23 25 12 -29 c7 -15 12 -33 13 -39z m271 51 c0 -6 -9 -16 -19 -23 -26 -17
-38 1 -16 23 17 17 36 17 35 0z m835 1 c10 -8 16 -17 12 -21 -10 -10 -45 4
-52 20 -7 19 14 19 40 1z m286 -13 c22 -20 22 -38 0 -81 l-18 -33 -22 24 c-21
23 -21 24 -5 65 18 47 20 48 45 25z m-447 -2 c3 -5 1 -12 -5 -16 -5 -3 -10 1
-10 9 0 18 6 21 15 7z m776 -133 c-7 -18 -19 -48 -25 -66 l-13 -33 -51 52
c-57 56 -56 54 -20 136 l20 46 51 -52 c51 -50 51 -51 38 -83z m-1605 86 c14
-33 14 -38 -2 -55 -23 -26 -28 -24 -41 12 -10 26 -9 35 5 55 9 13 18 24 20 24
2 0 10 -16 18 -36z m64 22 c0 -8 -4 -17 -9 -20 -10 -7 -23 19 -14 28 11 11 23
6 23 -8z m1000 5 c0 -6 -4 -13 -10 -16 -5 -3 -10 1 -10 9 0 9 5 16 10 16 6 0
10 -4 10 -9z m-1452 -46 c12 -25 22 -50 22 -56 0 -5 -25 -35 -56 -66 l-56 -57
56 -51 c31 -27 56 -55 56 -62 0 -6 -12 -39 -26 -72 l-27 -61 -60 61 -59 61 25
65 26 64 -20 45 c-10 25 -19 51 -19 57 0 11 99 117 110 117 3 0 16 -20 28 -45z
m612 30 c-7 -9 -15 -13 -17 -11 -7 7 7 26 19 26 6 0 6 -6 -2 -15z m684 -1 c4
-11 1 -14 -11 -12 -9 2 -18 9 -21 16 -6 18 25 15 32 -4z m227 -13 c17 -15 19
-26 14 -51 l-7 -32 -25 25 c-20 19 -24 31 -19 51 8 31 11 32 37 7z m-1341 -86
c-7 -11 -25 -31 -41 -43 l-29 -24 -14 34 c-14 33 -14 34 27 75 l41 43 13 -32
c11 -25 11 -37 3 -53z m1236 29 c-6 -16 -8 -16 -23 -2 -9 10 -13 23 -9 34 6
16 8 16 23 2 9 -10 13 -23 9 -34z m365 -64 c-6 -22 -15 -41 -20 -44 -4 -3 -25
12 -45 33 l-38 39 22 42 21 42 36 -37 c34 -35 35 -38 24 -75z m-1291 55 c-7
-8 -16 -12 -21 -9 -13 8 -11 42 4 47 18 6 31 -22 17 -38z m-192 -61 l-25 -25
-13 31 c-12 28 -11 33 11 56 l24 25 14 -31 c14 -29 14 -32 -11 -56z m1022 62
c0 -8 -4 -18 -10 -21 -5 -3 -10 3 -10 14 0 12 5 21 10 21 6 0 10 -6 10 -14z
m-740 -5 c0 -6 -4 -13 -10 -16 -5 -3 -10 1 -10 9 0 9 5 16 10 16 6 0 10 -4 10
-9z m1036 -55 c-8 -31 -17 -32 -40 -7 -13 14 -14 24 -6 45 l10 27 21 -20 c16
-15 20 -27 15 -45z m-1186 15 c0 -10 -9 -26 -19 -35 -18 -17 -20 -16 -26 4 -4
14 -1 28 10 40 20 22 35 18 35 -9z m1052 12 c17 -15 25 -53 11 -53 -15 0 -51
43 -46 56 7 18 12 18 35 -3z m608 -38 l44 -45 -39 -40 c-21 -22 -42 -40 -46
-40 -3 0 -15 21 -26 46 -19 44 -20 49 -4 85 9 21 18 39 21 39 3 0 26 -20 50
-45z m-1570 0 c-8 -10 -17 -12 -23 -6 -6 6 -4 15 4 24 19 20 36 3 19 -18z
m864 19 c3 -9 3 -20 0 -25 -8 -13 -34 9 -34 27 0 19 26 18 34 -2z m-1548 -39
c12 -31 12 -39 -3 -77 -9 -24 -17 -45 -19 -46 -4 -5 -74 66 -74 75 0 7 71 83
78 83 1 0 10 -16 18 -35z m229 -6 c6 -27 -9 -89 -22 -89 -3 0 -20 13 -38 29
l-33 28 36 36 c20 20 39 34 43 31 4 -2 10 -18 14 -35z m159 14 c9 -20 11 -35
4 -52 l-9 -25 -25 26 c-25 25 -26 26 -9 52 10 14 19 26 21 26 2 0 10 -12 18
-27z m1066 6 c0 -6 -4 -7 -10 -4 -5 3 -10 11 -10 16 0 6 5 7 10 4 6 -3 10 -11
10 -16z m600 -52 c0 -14 -50 -54 -59 -48 -20 13 -27 58 -14 89 l13 32 30 -30
c17 -17 30 -36 30 -43z m-180 -1 c0 -11 -30 -46 -40 -46 -4 0 -13 13 -20 29
-9 22 -9 35 -1 50 l11 20 25 -21 c14 -12 25 -26 25 -32z m-1360 27 c0 -10 -4
-24 -9 -31 -6 -10 -10 -10 -20 2 -10 12 -10 18 1 30 18 20 28 20 28 -1z m1197
-31 c-14 -17 -22 0 -12 26 5 14 7 14 15 2 5 -9 4 -20 -3 -28z m-1087 18 c0 -5
-2 -10 -4 -10 -3 0 -8 5 -11 10 -3 6 -1 10 4 10 6 0 11 -4 11 -10z m490 0 c0
-5 -4 -10 -9 -10 -6 0 -13 5 -16 10 -3 6 1 10 9 10 9 0 16 -4 16 -10z m1040
-69 l21 -54 -53 -54 c-29 -29 -55 -53 -59 -53 -3 0 -16 25 -28 56 l-21 57 57
53 c32 29 58 52 59 51 1 -1 12 -26 24 -56z m-1824 14 c32 -36 32 -36 17 -73
-8 -20 -18 -40 -22 -44 -12 -13 -83 63 -76 81 4 9 12 28 17 44 13 36 25 34 64
-8z m263 -26 c-12 -24 -20 -24 -40 -1 -11 13 -13 25 -7 42 l8 23 25 -23 c19
-18 22 -27 14 -41z m945 30 c-9 -10 -21 -16 -26 -13 -5 3 -2 14 8 25 9 10 21
16 26 13 5 -3 2 -14 -8 -25z m119 9 c4 -14 0 -29 -10 -41 -16 -17 -17 -17 -31
8 -10 21 -11 30 -1 41 17 21 36 17 42 -8z m-1173 -38 c0 -3 -6 -14 -13 -24
-12 -16 -14 -16 -34 6 -16 18 -19 28 -12 47 l9 24 25 -23 c14 -13 25 -26 25
-30z m205 40 c11 -17 -5 -32 -21 -19 -7 6 -11 15 -8 20 7 12 21 11 29 -1z m75
0 c0 -5 -2 -10 -4 -10 -3 0 -8 5 -11 10 -3 6 -1 10 4 10 6 0 11 -4 11 -10z
m1015 -27 c15 -35 14 -37 -7 -60 l-23 -25 -17 39 c-16 37 -16 39 4 60 12 13
23 23 25 23 1 0 10 -16 18 -37z m168 -5 l15 -37 -44 -36 -44 -36 -14 33 c-13
32 -13 34 27 75 22 24 42 42 43 40 1 -1 9 -19 17 -39z m-1213 -29 c0 -11 -4
-18 -10 -14 -5 3 -7 12 -3 20 7 21 13 19 13 -6z m750 2 c0 -6 -4 -13 -10 -16
-5 -3 -10 1 -10 9 0 9 5 16 10 16 6 0 10 -4 10 -9z m99 -13 c8 -22 -2 -48 -19
-48 -10 0 -22 48 -15 60 10 17 25 11 34 -12z m-928 0 c2 -17 -2 -42 -7 -47 -2
-2 -10 2 -19 9 -11 9 -12 17 -4 31 11 22 28 25 30 7z m-101 -40 c0 -9 -3 -24
-6 -33 -6 -14 -9 -14 -30 6 -19 18 -21 25 -12 44 9 20 13 22 29 12 11 -7 19
-19 19 -29z m1142 -51 c-16 -18 -18 -18 -33 18 -16 35 -16 39 0 57 15 18 17
18 33 -19 16 -35 16 -39 0 -56z m-1270 -12 l-18 -46 -23 25 c-23 24 -23 25 -6
70 l17 45 24 -24 24 -24 -18 -46z m-146 -75 c-14 -35 -26 -67 -26 -71 0 -4 29
-17 65 -29 l65 -22 0 -64 c0 -35 -3 -64 -7 -64 -26 0 -133 55 -134 69 -1 9 -1
36 -2 60 0 37 -5 49 -33 75 -19 17 -34 38 -34 48 0 9 12 44 26 76 l26 60 40
-37 39 -38 -25 -63z m1234 136 c0 -3 -4 -8 -10 -11 -5 -3 -10 -1 -10 4 0 6 5
11 10 11 6 0 10 -2 10 -4z m318 -35 c9 -25 7 -32 -13 -51 l-23 -22 -17 32
c-16 31 -16 33 6 56 25 27 33 25 47 -15z m156 -122 c-21 -21 -39 -37 -41 -36
-1 2 -14 29 -28 60 l-25 58 42 39 43 39 24 -60 24 -60 -39 -40z m-1214 126
c10 -12 10 -15 -4 -15 -9 0 -16 7 -16 15 0 8 2 15 4 15 2 0 9 -7 16 -15z
m1454 -64 l27 -69 -50 -47 -51 -48 0 -86 0 -86 -68 -27 c-37 -15 -75 -30 -85
-34 -16 -6 -18 0 -15 66 l3 73 72 26 c39 14 74 29 77 32 4 3 -7 39 -24 79 -16
40 -30 78 -30 84 0 14 101 116 110 111 4 -2 19 -35 34 -74z m-2137 -111 c-44
-101 -46 -94 30 -125 37 -15 71 -31 74 -37 4 -6 7 -39 8 -74 l1 -63 -87 39
-88 39 -5 83 c-5 81 -6 84 -47 126 -46 49 -46 31 2 149 l16 37 60 -60 60 -60
-24 -54z m521 152 c2 -7 -3 -12 -12 -12 -9 0 -16 7 -16 16 0 17 22 14 28 -4z
m1007 8 c3 -5 -1 -10 -10 -10 -9 0 -13 5 -10 10 3 6 8 10 10 10 2 0 7 -4 10
-10z m-915 -43 c0 -13 -5 -17 -16 -13 -9 3 -20 6 -25 6 -5 0 -9 11 -9 25 0 23
2 24 25 13 14 -6 25 -20 25 -31z m850 28 c0 -14 -29 -35 -49 -35 -20 0 -11 31
12 40 31 13 37 12 37 -5z m-1044 -21 c20 -29 4 -48 -29 -33 -22 10 -24 14 -14
36 12 27 24 26 43 -3z m1223 -35 c-21 -13 -41 -11 -33 4 20 34 27 39 37 21 6
-11 5 -19 -4 -25z m-956 -5 c-3 -8 -9 -14 -13 -14 -14 0 -21 17 -14 34 5 12
10 14 20 6 7 -7 10 -18 7 -26z m677 16 c0 -11 -7 -20 -15 -20 -15 0 -21 21 -8
33 12 13 23 7 23 -13z m200 -13 c0 -26 -6 -36 -25 -45 -35 -16 -35 -16 -35 21
0 25 6 37 23 45 34 16 37 15 37 -21z m-1290 -4 c13 -11 20 -30 20 -51 0 -32
-2 -34 -27 -27 -41 10 -46 19 -32 59 7 20 14 36 16 36 1 0 12 -8 23 -17z m231
7 c24 -13 27 -55 3 -46 -9 3 -20 6 -25 6 -5 0 -9 11 -9 25 0 28 3 29 31 15z
m299 0 c0 -5 -5 -10 -11 -10 -5 0 -7 5 -4 10 3 6 8 10 11 10 2 0 4 -4 4 -10z
m998 -76 c-2 -2 -21 -10 -41 -19 l-37 -15 0 37 c0 24 8 45 23 61 l22 24 18
-42 c10 -23 17 -43 15 -46z m-342 30 c-1 -22 -8 -40 -20 -46 -21 -12 -23 -10
-26 17 -5 42 -2 46 47 64 1 1 0 -15 -1 -35z m-848 -19 c1 -21 -1 -23 -21 -16
-14 5 -23 18 -25 35 -3 24 -2 25 20 15 14 -6 25 -20 26 -34z m-220 20 c35 -14
38 -18 37 -55 0 -43 -3 -45 -55 -26 -31 11 -35 17 -37 54 -2 47 1 48 55 27z
m1288 -31 c2 -40 -10 -60 -45 -72 l-30 -11 3 37 c3 20 5 42 5 48 1 12 41 34
56 30 5 -1 10 -16 11 -32z m-926 16 c13 -9 13 -11 0 -19 -16 -11 -43 5 -34 20
7 11 15 11 34 -1z m78 -8 c6 -18 -15 -14 -22 4 -4 10 -1 14 6 12 6 -2 14 -10
16 -16z m527 -1 c-3 -6 -11 -8 -17 -5 -6 4 -5 9 3 15 16 10 23 4 14 -10z m620
-36 c9 -26 15 -48 12 -51 -3 -3 -25 -12 -50 -19 l-46 -14 1 42 c0 31 7 49 26
69 14 15 28 25 32 23 4 -2 15 -25 25 -50z m-1305 24 c0 -6 -4 -7 -10 -4 -5 3
-10 11 -10 16 0 6 5 7 10 4 6 -3 10 -11 10 -16z m620 13 c0 -4 -9 -8 -20 -8
-11 0 -20 4 -20 8 0 4 9 8 20 8 11 0 20 -4 20 -8z m-1193 -52 c5 -14 8 -32 7
-40 -1 -8 -2 -21 -3 -27 -1 -9 -11 -8 -38 4 -21 10 -40 19 -42 20 -2 1 4 23
13 47 16 41 19 44 37 33 10 -6 22 -23 26 -37z m958 40 c-3 -5 -11 -10 -16 -10
-6 0 -7 5 -4 10 3 6 11 10 16 10 6 0 7 -4 4 -10z m-539 -58 c1 -37 -1 -40 -20
-33 -16 6 -22 18 -24 49 -3 40 -2 41 20 33 19 -7 23 -16 24 -49z m398 39 c3
-5 -1 -11 -9 -15 -15 -6 -29 7 -18 18 9 9 21 8 27 -3z m201 -1 c3 -5 -1 -10
-10 -10 -9 0 -13 5 -10 10 3 6 8 10 10 10 2 0 7 -4 10 -10z m445 -33 c0 -37
-4 -46 -25 -55 -36 -16 -35 -17 -35 31 0 36 4 46 23 55 35 17 37 15 37 -31z
m650 -29 c14 -35 25 -67 25 -71 0 -8 -108 -57 -125 -57 -3 0 -7 29 -8 64 -2
62 -1 65 33 95 20 17 39 31 43 31 4 0 19 -28 32 -62z m-2322 -70 c-1 -38 -5
-57 -12 -55 -79 32 -96 41 -96 50 0 5 10 37 22 69 l21 59 33 -32 c30 -29 33
-36 32 -91z m1493 90 c-6 -17 -16 -22 -42 -23 -19 0 -33 3 -31 8 1 4 2 13 2
21 0 9 12 16 33 18 43 5 48 1 38 -24z m469 -17 l0 -48 -56 -22 c-31 -11 -60
-21 -65 -21 -5 0 -9 20 -9 45 0 45 0 46 53 69 74 34 77 34 77 -23z m-1259 29
c24 -13 25 -39 2 -35 -10 2 -21 4 -25 4 -9 1 -11 41 -2 41 3 0 14 -5 25 -10z
m191 -5 c13 -17 9 -33 -7 -31 -22 3 -38 22 -31 35 8 12 28 10 38 -4z m398 11
c0 -3 -4 -8 -10 -11 -5 -3 -10 -1 -10 4 0 6 5 11 10 11 6 0 10 -2 10 -4z m81
-18 c-8 -21 -25 -30 -44 -21 -14 7 14 43 33 43 16 0 18 -4 11 -22z m-563 -10
c3 -17 -13 -19 -35 -5 -21 13 -15 29 9 25 13 -2 24 -11 26 -20z m759 -2 c-4
-10 -13 -13 -23 -9 -15 6 -15 7 1 20 21 15 30 10 22 -11z m-490 -12 c-3 -4
-14 -3 -24 0 -15 6 -15 8 -3 16 16 10 39 -4 27 -16z m98 6 c-3 -5 -11 -10 -16
-10 -6 0 -7 5 -4 10 3 6 11 10 16 10 6 0 7 -4 4 -10z m-646 -39 c4 -9 7 -42 6
-74 l-2 -58 65 4 64 4 19 -44 c10 -25 19 -48 19 -53 0 -4 -29 -8 -64 -8 l-64
0 -23 49 c-18 39 -32 54 -64 68 l-41 18 -2 65 -1 66 40 -10 c22 -6 43 -18 48
-27z m473 7 c-6 -6 -19 -7 -29 -3 -17 7 -17 8 2 15 24 9 41 2 27 -12z m267 6
c1 -1 0 -7 -3 -13 -5 -7 -15 -7 -31 1 -29 13 -22 32 8 22 12 -3 24 -8 26 -10z
m515 -26 c-1 -18 -2 -40 -3 -49 0 -9 -17 -20 -36 -26 l-35 -11 0 44 c0 41 3
46 33 59 43 19 42 19 41 -17z m-659 2 c-3 -5 -10 -10 -16 -10 -5 0 -9 5 -9 10
0 6 7 10 16 10 8 0 12 -4 9 -10z m-517 -9 c7 -4 19 -19 27 -34 12 -24 12 -25
-21 -29 -33 -4 -34 -3 -34 34 0 39 5 44 28 29z m147 -18 c9 -38 9 -38 -29 -41
-27 -2 -35 3 -44 23 -18 40 -15 45 27 45 34 0 40 -3 46 -27z m94 -3 c9 -27 8
-30 -12 -30 -16 0 -26 9 -34 30 -10 28 -10 30 12 30 17 0 26 -8 34 -30z m81
20 c0 -5 -2 -10 -4 -10 -2 0 -11 -3 -19 -6 -8 -3 -17 2 -20 10 -5 12 0 16 18
16 14 0 25 -4 25 -10z m410 -6 c0 -11 -5 -14 -16 -10 -9 3 -18 6 -20 6 -3 0
-2 5 1 10 10 16 35 12 35 -6z m115 -1 c-4 -10 -10 -26 -12 -35 -3 -10 -8 -18
-12 -19 -32 -5 -61 -5 -61 1 0 4 5 21 11 39 9 27 16 31 46 31 30 0 34 -3 28
-17z m118 -17 c-13 -27 -23 -35 -50 -38 -19 -2 -36 -2 -37 1 -2 3 3 21 10 39
13 28 18 32 54 32 l40 0 -17 -34z m-503 -1 c22 -26 -4 -43 -30 -20 -20 18 -18
35 4 35 8 0 19 -7 26 -15z m145 4 c7 -10 -22 -38 -40 -39 -5 0 -16 4 -24 9
-12 8 -12 11 0 25 16 18 55 21 64 5z m455 -14 c0 -22 -4 -25 -36 -25 -33 0
-35 2 -23 18 32 40 59 43 59 7z m-682 -21 c29 -20 28 -28 -4 -43 -23 -10 -30
-9 -51 11 l-24 22 23 13 c29 16 29 16 56 -3z m342 -36 c-16 -18 -23 -19 -54
-8 -40 13 -44 21 -21 44 13 13 19 13 54 -1 39 -15 39 -16 21 -35z m627 -19 l0
-71 -41 -17 c-91 -39 -86 -42 -86 42 l0 74 53 21 c28 11 57 20 63 21 7 1 11
-24 11 -70z m-1622 35 l65 -26 0 -74 0 -74 71 0 70 0 25 -55 c13 -31 24 -57
24 -58 0 -3 -126 -1 -156 2 -6 0 -22 29 -35 62 -21 59 -25 63 -79 88 l-57 26
-2 68 c-1 37 1 67 4 67 3 0 34 -12 70 -26z m815 -24 c0 -20 -26 -28 -45 -14
-16 12 -17 16 -6 23 15 9 51 3 51 -9z m-258 -10 c17 -14 17 -16 1 -27 -23 -18
-31 -16 -43 7 -20 38 5 50 42 20z m-82 -36 c26 -61 26 -63 -15 -60 -41 2 -47
7 -68 64 l-17 42 40 0 c37 0 40 -3 60 -46z m720 32 c0 -6 -9 -30 -20 -53 -16
-37 -23 -43 -50 -43 -34 0 -37 11 -15 63 14 33 27 41 73 43 6 0 12 -4 12 -10z
m139 -13 c-28 -75 -38 -84 -83 -81 l-43 3 15 35 c28 67 29 69 76 67 42 -1 44
-2 35 -24z m115 -20 c-1 -27 -2 -51 -3 -55 0 -4 -24 -7 -51 -6 -37 0 -48 3
-42 11 5 7 12 25 16 40 4 19 17 33 39 42 44 19 43 21 41 -32z m-374 30 c-1
-19 -18 -33 -33 -27 -18 6 -21 16 -10 27 9 9 43 9 43 0z m-907 -42 c3 -9 8
-24 12 -34 7 -16 3 -18 -31 -15 -38 3 -39 4 -41 45 l-3 41 30 -11 c16 -6 31
-18 33 -26z m581 8 c15 -17 26 -32 24 -33 -2 -2 -14 -9 -27 -16 -21 -11 -27
-9 -59 24 l-36 35 25 10 c37 15 44 13 73 -20z m156 18 l32 -14 -30 -32 c-26
-28 -34 -32 -61 -26 -43 9 -46 20 -15 55 31 35 31 34 74 17z m-1102 -46 l82
-35 1 -58 c2 -101 4 -116 12 -124 4 -5 40 -9 80 -10 40 -1 75 -2 78 -3 6 -1
59 -116 59 -127 0 -2 -92 -4 -205 -4 l-205 0 0 201 c0 110 4 199 8 197 5 -1
45 -18 90 -37z m2027 -370 c-8 -7 -393 -8 -405 -1 -5 3 3 36 18 73 l27 68 95
-3 95 -3 2 80 c1 44 2 90 3 102 0 17 16 28 83 56 l82 34 3 -200 c1 -110 0
-203 -3 -206z m-1182 349 l28 -29 -34 -14 c-72 -30 -77 -30 -107 0 l-29 28 42
22 c55 29 67 28 100 -7z m392 11 c22 -11 32 -20 23 -20 -10 -1 -18 -4 -18 -8
0 -5 -12 -16 -26 -26 -21 -16 -30 -17 -59 -7 -19 6 -35 14 -35 18 0 11 53 62
64 62 6 0 29 -9 51 -19z m-229 -51 c26 -10 26 -11 8 -29 -19 -18 -20 -18 -42
2 -17 16 -19 23 -10 29 16 10 12 10 44 -2z m809 -62 l-1 -63 -62 -1 c-34 -1
-62 0 -62 3 0 2 9 25 20 51 16 36 29 51 58 63 20 9 39 15 43 13 3 -1 5 -31 4
-66z m-1650 50 c25 -8 37 -23 53 -60 l20 -48 -54 0 c-59 0 -54 -8 -58 83 -2
42 -3 41 39 25z m443 -58 c13 -33 29 -60 35 -60 7 0 32 9 56 20 24 11 46 20
50 20 3 0 24 -15 46 -34 l39 -34 -35 -15 c-108 -45 -104 -45 -147 1 -36 38
-44 42 -90 42 -56 0 -62 5 -91 73 l-20 47 67 0 67 0 23 -60z m87 40 c20 -22
20 -22 -13 -39 -20 -11 -23 -9 -32 15 -6 15 -13 31 -16 35 -11 18 44 8 61 -11z
m635 16 c0 -3 -4 -16 -10 -30 -8 -23 -12 -24 -40 -15 -33 12 -36 19 -18 37 11
11 68 17 68 8z m127 -48 l-24 -53 -44 3 c-24 2 -45 4 -46 5 -1 1 8 24 19 50
20 47 21 47 69 47 l49 0 -23 -52z m209 0 l-23 -53 -82 -3 -81 -3 11 28 c32 88
26 83 116 83 l82 0 -23 -52z m-714 -8 l41 -41 43 42 c41 40 43 41 78 29 20 -6
36 -15 36 -19 0 -4 -19 -26 -43 -49 l-43 -43 -49 22 c-47 21 -51 21 -94 5
l-45 -16 -38 37 -38 37 38 17 c55 26 68 23 114 -21z m310 -28 l48 -18 -49 -48
-48 -48 -53 23 -53 23 47 43 c26 24 50 43 54 43 4 0 28 -8 54 -18z m145 -65
c8 -8 -29 -98 -43 -103 -6 -3 -32 4 -59 16 l-48 20 42 39 c32 30 49 38 72 36
16 -1 33 -5 36 -8z m-402 -9 l26 -12 -27 -23 c-34 -29 -35 -29 -64 3 -21 21
-22 27 -10 34 20 13 44 12 75 -2z m610 2 c4 -6 -29 -86 -54 -130 -6 -11 -27
-15 -85 -15 -42 0 -76 1 -76 3 0 1 14 36 32 77 l32 75 74 -2 c40 -1 75 -5 77
-8z m-1131 -27 c7 -16 21 -45 30 -66 l15 -38 -85 3 -86 3 -24 59 c-13 33 -24
61 -24 63 0 2 36 3 80 3 77 0 80 -1 94 -27z m128 0 c15 -15 28 -30 28 -34 0
-10 -70 -33 -77 -25 -3 3 -14 24 -24 46 l-18 40 31 0 c21 0 42 -9 60 -27z
m300 -40 c21 -20 38 -40 38 -44 0 -4 -12 -12 -27 -17 -16 -6 -45 -17 -65 -26
l-37 -16 -47 47 -47 46 59 23 c33 12 66 23 74 23 8 1 31 -16 52 -36z m235 5
l33 -14 -45 -44 -44 -44 -51 24 -51 24 42 42 c44 45 40 45 116 12z m-417 -83
l43 -44 -44 -19 c-82 -36 -81 -36 -129 13 -24 24 -42 46 -39 48 9 8 105 46
114 47 6 0 31 -20 55 -45z m582 14 l78 -31 -45 -44 c-24 -24 -50 -44 -56 -44
-10 0 -135 56 -148 66 -6 5 72 83 84 84 6 0 45 -14 87 -31z m-293 -47 l40 -18
-54 -54 -54 -53 -40 41 c-22 22 -42 46 -43 52 -3 11 72 48 98 49 7 1 30 -7 53
-17z m-458 -38 l42 -43 -24 -10 c-13 -5 -49 -20 -81 -34 l-56 -25 -31 74 c-17
40 -31 75 -31 77 0 2 31 4 69 4 69 0 70 0 112 -43z m953 -31 c-45 -101 -37
-95 -92 -70 -92 44 -90 39 -41 85 41 39 48 42 101 42 l57 0 -25 -57z m-547
-102 c9 8 43 41 75 73 l57 59 76 -33 c41 -18 75 -36 75 -40 0 -8 -276 -283
-289 -288 -4 -1 -23 15 -42 36 -19 22 -79 87 -134 147 -55 59 -101 110 -102
114 -2 3 25 18 60 32 l62 27 72 -71 c65 -64 74 -69 90 -56z"/>
</g>
</svg>
