<?xml version="1.0" standalone="no"?>
<!DOCTYPE svg PUBLIC "-//W3C//DTD SVG 20010904//EN"
 "http://www.w3.org/TR/2001/REC-SVG-20010904/DTD/svg10.dtd">
<svg version="1.0" xmlns="http://www.w3.org/2000/svg"
 width="700.000000pt" height="700.000000pt" viewBox="0 0 700.000000 700.000000"
 preserveAspectRatio="xMidYMid meet">
<metadata>
Created by potrace 1.14, written by Peter Selinger 2001-2017
</metadata>
<g transform="translate(0.000000,700.000000) scale(0.100000,-0.100000)"
fill="#000000" stroke="none">
<path d="M2939 6995 c-2 -1 -40 -6 -84 -9 -89 -6 -142 -12 -230 -26 -33 -5
-78 -12 -100 -16 -22 -3 -78 -15 -125 -26 -47 -11 -93 -21 -102 -23 -100 -21
-304 -86 -468 -150 -190 -73 -597 -287 -702 -368 l-23 -19 27 16 c14 8 64 38
110 65 157 92 462 238 558 266 14 4 39 13 55 20 53 24 246 82 375 114 106 26
204 44 410 75 77 12 254 21 415 21 246 -1 350 -10 638 -61 138 -24 370 -90
547 -156 371 -139 759 -387 1041 -668 303 -300 542 -651 679 -996 29 -73 86
-253 95 -303 29 -154 42 -353 25 -397 -10 -25 -11 -26 -30 -9 -24 22 -56 89
-119 247 -95 241 -233 486 -396 703 -106 141 -154 195 -289 330 -339 338 -766
589 -1231 725 -77 22 -149 42 -160 44 -11 2 -58 11 -105 20 -136 25 -142 26
-200 32 -30 3 -82 9 -115 14 -61 8 -505 6 -560 -3 -16 -3 -57 -8 -90 -12 -52
-5 -122 -16 -252 -40 -255 -45 -643 -202 -934 -377 -102 -62 -305 -200 -345
-236 -11 -9 -49 -41 -84 -71 -114 -95 -343 -332 -439 -456 -265 -340 -459
-712 -589 -1130 -65 -208 -90 -320 -116 -525 -27 -212 -28 -726 -1 -868 1 -9
6 -44 9 -77 10 -82 53 -303 78 -395 11 -41 21 -83 23 -92 6 -31 83 -252 120
-348 76 -196 287 -597 368 -702 l19 -23 -16 27 c-8 14 -38 65 -66 111 -187
318 -338 703 -419 1072 -23 103 -24 113 -46 257 -40 277 -40 658 -1 941 38
267 90 472 173 682 320 808 918 1453 1618 1745 68 28 240 81 322 99 239 53
463 63 463 21 0 -16 -99 -67 -205 -106 -255 -91 -567 -267 -803 -452 -53 -41
-102 -80 -108 -86 -6 -6 -47 -42 -90 -81 -223 -201 -444 -490 -595 -779 -185
-355 -286 -697 -326 -1104 -10 -102 -10 -445 0 -552 13 -141 22 -207 48 -340
12 -58 23 -114 25 -125 8 -42 55 -192 88 -279 133 -353 317 -674 549 -956 93
-113 331 -349 437 -433 47 -38 92 -74 101 -82 41 -33 214 -147 314 -207 204
-122 436 -228 674 -308 160 -54 390 -116 461 -125 44 -5 110 -13 160 -20 189
-26 720 -26 858 0 9 1 42 6 73 9 31 4 65 8 75 10 11 2 39 7 64 11 76 12 81 14
228 50 285 70 561 175 824 313 164 86 268 146 268 155 0 5 -19 -3 -42 -18 -71
-43 -307 -160 -403 -200 -49 -21 -104 -44 -122 -51 -110 -49 -464 -152 -608
-178 -16 -3 -39 -8 -50 -10 -11 -2 -56 -9 -100 -15 -44 -7 -93 -14 -110 -16
-168 -26 -608 -25 -790 1 -150 21 -188 27 -255 41 -41 8 -86 17 -100 19 -14 3
-33 7 -42 10 -9 3 -25 6 -35 8 -74 15 -314 93 -445 145 -304 121 -695 375
-940 610 -348 333 -636 777 -758 1166 -24 79 -23 74 -43 170 -28 132 -42 319
-28 372 18 68 58 11 141 -200 270 -689 794 -1267 1435 -1585 303 -151 637
-251 955 -288 25 -3 79 -9 120 -13 77 -9 501 -7 555 3 17 3 55 8 85 11 270 29
509 92 785 208 62 26 327 160 375 189 273 166 434 291 641 498 75 74 162 166
193 204 254 304 467 678 605 1064 38 104 97 294 105 337 2 11 11 47 19 80 9
33 18 80 21 105 13 102 18 136 22 160 12 75 19 241 19 445 -1 208 -3 266 -21
430 -11 102 -55 334 -84 448 -29 114 -110 372 -130 412 -5 11 -32 74 -60 140
-74 173 -278 555 -297 555 -5 0 -6 2 56 -102 85 -143 227 -444 274 -583 45
-132 118 -410 136 -520 6 -33 12 -70 15 -82 3 -12 7 -46 10 -75 4 -29 8 -63
10 -74 27 -138 28 -687 1 -864 -2 -14 -6 -45 -10 -70 -10 -70 -55 -302 -65
-335 -5 -16 -26 -86 -46 -155 -175 -605 -553 -1154 -1064 -1546 -155 -120
-261 -184 -475 -289 -215 -105 -419 -176 -580 -201 -22 -3 -58 -9 -80 -13 -52
-9 -231 -8 -240 1 -18 18 12 42 97 83 51 24 116 51 143 60 65 21 278 124 380
182 233 134 446 296 635 483 488 483 780 1097 854 1790 12 117 15 547 3 595
-3 11 -8 53 -11 94 -4 41 -9 77 -10 80 -2 3 -7 28 -10 54 -14 105 -50 269 -77
347 -108 324 -228 575 -394 825 -228 345 -521 645 -857 878 -445 308 -1043
540 -1503 582 -38 4 -83 9 -100 12 -35 5 -551 14 -556 8z m1021 -1179 c299
-32 575 -113 840 -245 113 -57 223 -120 207 -121 -4 0 -26 12 -50 27 -60 38
-247 125 -347 161 -159 58 -287 91 -495 127 -104 18 -369 24 -507 12 -401 -36
-766 -172 -1092 -409 -92 -67 -118 -89 -211 -183 -221 -220 -399 -502 -474
-750 -35 -116 -39 -141 -47 -252 -7 -90 0 -138 18 -127 12 8 78 146 78 165 0
24 129 269 194 368 152 230 331 410 551 556 179 118 329 189 515 245 400 118
871 109 1236 -25 192 -70 475 -225 603 -330 394 -324 630 -686 781 -1200 24
-82 47 -218 57 -336 13 -148 6 -455 -11 -545 -3 -12 -7 -39 -11 -60 -10 -69
-15 -93 -31 -161 -18 -79 -70 -254 -89 -298 -7 -16 -27 -66 -46 -110 -39 -95
-126 -264 -144 -284 -7 -7 9 30 37 83 233 452 310 932 233 1441 -32 212 -89
385 -196 595 -311 613 -849 1020 -1396 1057 -95 6 -122 1 -103 -22 15 -18 46
-33 157 -75 167 -63 401 -200 543 -318 63 -52 218 -206 274 -272 103 -121 236
-350 306 -524 34 -87 86 -264 95 -328 4 -24 8 -45 10 -48 2 -3 6 -34 9 -70 4
-36 9 -78 13 -94 6 -35 6 -330 -1 -371 -2 -16 -8 -55 -11 -85 -25 -212 -79
-388 -186 -606 -59 -122 -153 -279 -202 -340 -9 -10 -39 -48 -68 -84 -270
-333 -655 -584 -1109 -723 -93 -29 -166 -46 -220 -53 -19 -2 -46 -6 -60 -9
-139 -25 -485 -25 -660 1 -146 21 -344 67 -429 99 -20 7 -74 27 -119 45 -46
17 -91 35 -100 40 -10 5 -55 28 -102 51 -97 47 -210 109 -210 115 0 2 51 -23
113 -54 165 -85 371 -168 492 -197 85 -21 207 -46 240 -51 22 -2 47 -6 55 -9
33 -9 172 -18 295 -19 120 -1 171 2 310 18 41 5 193 36 301 61 66 15 268 92
347 131 356 178 609 400 823 721 102 153 203 379 229 508 22 113 28 276 9 282
-14 5 -45 -53 -88 -165 -41 -108 -107 -234 -181 -347 -56 -86 -203 -275 -215
-275 -4 0 -13 26 -20 58 -8 31 -15 62 -16 67 -19 68 -135 515 -138 530 -3 11
-12 47 -21 80 -35 132 -85 324 -85 328 0 2 78 3 173 3 l172 0 3 130 3 129
-207 0 c-197 0 -207 1 -215 20 -12 28 -59 212 -59 229 0 12 64 14 413 15 226
0 432 0 456 0 l45 1 -60 36 c-82 49 -158 127 -197 201 l-32 63 -75 1 c-180 2
-302 34 -444 113 -106 59 -209 175 -230 260 -6 23 -11 26 -54 26 -59 1 -1248
1 -1282 0 -21 0 -29 -8 -39 -37 -33 -93 -130 -196 -244 -261 -54 -31 -193 -78
-257 -88 -77 -11 -81 -11 -167 -13 l-78 -1 -32 -63 c-39 -74 -115 -152 -197
-201 l-60 -36 45 -1 c24 0 230 0 457 0 370 0 412 -2 412 -16 0 -20 -50 -213
-60 -233 -7 -13 -41 -15 -214 -15 l-206 0 0 -126 c0 -93 3 -128 13 -131 6 -2
85 -3 175 -3 l163 2 -7 -31 c-3 -17 -17 -67 -29 -111 -12 -44 -46 -172 -75
-285 -46 -179 -82 -319 -147 -567 l-16 -62 -40 31 c-139 110 -301 292 -410
458 -144 220 -261 537 -291 785 -3 28 -9 66 -11 85 -8 47 -8 345 -1 395 3 22
8 60 11 85 6 45 9 64 20 130 10 61 55 210 92 304 196 500 563 901 1048 1147
72 36 168 80 215 98 110 42 331 107 395 115 28 4 61 9 75 11 14 2 61 7 105 10
44 4 81 8 82 9 6 5 323 -2 383 -8z m-2455 -886 c-9 -16 -18 -30 -21 -30 -2 0
2 14 11 30 9 17 18 30 21 30 2 0 -2 -13 -11 -30z m-75 -145 c-61 -126 -121
-305 -153 -460 -24 -115 -28 -141 -45 -265 -15 -116 -7 -490 12 -600 3 -14 7
-38 10 -55 97 -598 488 -1159 999 -1434 216 -116 408 -177 585 -188 90 -5 102
-4 102 11 0 17 -42 39 -195 102 -49 20 -94 40 -99 45 -4 4 -1 49 8 101 24 134
196 1161 196 1168 0 12 1300 7 1301 -4 0 -6 2 -20 5 -31 2 -11 6 -33 8 -50 12
-80 19 -119 30 -185 7 -39 6 -35 42 -250 26 -162 32 -196 40 -245 2 -16 9 -52
14 -80 5 -27 26 -144 45 -259 20 -116 38 -219 41 -230 4 -17 -8 -29 -63 -62
-231 -141 -512 -242 -748 -268 -27 -4 -66 -8 -85 -11 -49 -7 -336 -8 -390 -1
-25 3 -61 8 -80 11 -19 2 -53 7 -75 10 -282 37 -663 211 -927 421 -413 330
-711 833 -804 1359 -34 194 -38 521 -8 725 12 83 55 284 65 301 5 11 8 19 5
19 -16 0 122 351 177 452 48 89 42 63 -13 -47z m1938 -1178 l-3 -131 -233 -1
c-147 0 -232 4 -233 10 -1 6 -1 12 -1 15 1 13 34 216 37 227 3 8 65 11 220 11
l216 0 -3 -131z m708 58 c7 -38 15 -92 19 -120 4 -27 9 -53 11 -56 8 -13 -24
-15 -246 -14 l-225 1 -3 131 -3 131 218 -2 218 -1 11 -70z m1385 -1668 c-10
-9 -11 -8 -5 6 3 10 9 15 12 12 3 -3 0 -11 -7 -18z"/>
<path d="M6370 5866 c0 -2 8 -10 18 -17 15 -13 16 -12 3 4 -13 16 -21 21 -21
13z"/>
<path d="M666 1057 c3 -10 9 -15 12 -12 3 3 0 11 -7 18 -10 9 -11 8 -5 -6z"/>
<path d="M5909 653 c-13 -15 -12 -15 9 -4 23 12 28 21 13 21 -5 0 -15 -7 -22
-17z"/>
<path d="M5825 600 c-16 -11 -25 -20 -20 -20 10 0 64 39 55 40 -3 0 -18 -9
-35 -20z"/>
</g>
</svg>
